# xmcd
#
# Track frame offsets: 
#        150
#        18567
#        36255
#        58510
#        80785
#        100520
#        119082
#        138412
#        162815
#        181620
#        201607
#        221012
#        241445
#        256587
#
# Disc length: 3663 seconds
#
# Revision: 0
# Processed by: cddbd v1.5.1PL0 Copyright (c) Steve Scherf et al.
# Submitted via: ExactAudioCopy v0.95a5
#
DISCID=c40e4d0e
DTITLE=DJ Sammy - Heaven
DYEAR=2004
DGENRE=Trance
TTITLE0=Sunlight
TTITLE1=Heaven
TTITLE2=Beautiful Smile
TTITLE3=The Boys Of Summer
TTITLE4=El Condor Pasa
TTITLE5=Paradise Of Love
TTITLE6=Unbreakable
TTITLE7=Irrisistible
TTITLE8=Vive El Presente
TTITLE9=Take Me Back To Heaven
TTITLE10=Appalachian Fall
TTITLE11=California Dreaming
TTITLE12=Sunlight (Bossa Nova Vibes)
TTITLE13=Heaven (Yanou's Candlelight Version)
EXTD=
EXTT0=
EXTT1=
EXTT2=
EXTT3=
EXTT4=
EXTT5=
EXTT6=
EXTT7=
EXTT8=
EXTT9=
EXTT10=
EXTT11=
EXTT12=
EXTT13=
PLAYORDER=
